<svg width="457" height="369" viewBox="0 0 457 369" fill="none" xmlns="http://www.w3.org/2000/svg">
<path d="M349 246.5C349 275.374 343.859 296.134 334.167 311.056C324.483 325.965 310.216 335.104 291.836 340.66C273.443 346.221 250.956 348.185 224.874 348.755C208.868 349.105 191.536 348.929 172.983 348.742C161.297 348.623 149.128 348.5 136.5 348.5C135.162 348.5 133.837 348.5 132.526 348.5C101.818 348.503 78.3304 348.505 60.3479 346.882C41.5887 345.189 28.9243 341.733 20.3346 334.751C11.7637 327.784 7.16437 317.234 4.7203 301.128C2.27515 285.015 2 263.436 2 234.5C2 220.849 1.73402 207.67 1.47925 195.047C1.46399 194.29 1.44877 193.536 1.43365 192.784C1.16605 179.473 0.929769 166.794 1.05409 154.833C1.3028 130.904 2.99546 109.897 8.74403 92.5182C14.4861 75.1588 24.2718 61.4277 40.7231 52.0226C57.1928 42.6069 80.3899 37.5 113 37.5C243.398 37.5 349 131.128 349 246.5Z" fill="#4AB19B" stroke="#4AB19B"/>
<ellipse cx="350.5" cy="305.5" rx="65.5" ry="63.5" fill="#EE1177"/>
<ellipse cx="57" cy="37" rx="36" ry="37" fill="#EFC958"/>
<ellipse cx="431.5" cy="313" rx="25.5" ry="24" fill="#E17A41"/>
</svg>
